<svg width="20" height="20" viewBox="0 0 20 20" fill="none" xmlns="http://www.w3.org/2000/svg">
<path d="M10.0003 2.5C8.90598 2.5 7.82234 2.71555 6.8113 3.13434C5.80025 3.55313 4.88159 4.16696 4.10777 4.94078C2.54497 6.50358 1.66699 8.6232 1.66699 10.8333V16.6667C1.66699 16.8877 1.75479 17.0996 1.91107 17.2559C2.06735 17.4122 2.27931 17.5 2.50033 17.5H5.00033C5.66337 17.5 6.29925 17.2366 6.76809 16.7678C7.23693 16.2989 7.50033 15.663 7.50033 15V13.3333C7.50033 12.6703 7.23693 12.0344 6.76809 11.5656C6.29925 11.0967 5.66337 10.8333 5.00033 10.8333H3.33366C3.33366 9.06522 4.03604 7.36953 5.28628 6.11929C6.53652 4.86905 8.23222 4.16667 10.0003 4.16667C11.7684 4.16667 13.4641 4.86905 14.7144 6.11929C15.9646 7.36953 16.667 9.06522 16.667 10.8333H15.0003C14.3373 10.8333 13.7014 11.0967 13.2326 11.5656C12.7637 12.0344 12.5003 12.6703 12.5003 13.3333V15C12.5003 15.663 12.7637 16.2989 13.2326 16.7678C13.7014 17.2366 14.3373 17.5 15.0003 17.5H17.5003C17.7213 17.5 17.9333 17.4122 18.0896 17.2559C18.2459 17.0996 18.3337 16.8877 18.3337 16.6667V10.8333C18.3337 8.6232 17.4557 6.50358 15.8929 4.94078C14.3301 3.37797 12.2105 2.5 10.0003 2.5ZM5.00033 12.5C5.22134 12.5 5.4333 12.5878 5.58958 12.7441C5.74586 12.9004 5.83366 13.1123 5.83366 13.3333V15C5.83366 15.221 5.74586 15.433 5.58958 15.5893C5.4333 15.7455 5.22134 15.8333 5.00033 15.8333H3.33366V12.5H5.00033ZM16.667 15.8333H15.0003C14.7793 15.8333 14.5673 15.7455 14.4111 15.5893C14.2548 15.433 14.167 15.221 14.167 15V13.3333C14.167 13.1123 14.2548 12.9004 14.4111 12.7441C14.5673 12.5878 14.7793 12.5 15.0003 12.5H16.667V15.8333Z" fill="black"/>
</svg>
