<svg width="58" height="54" viewBox="0 0 58 54" fill="none" xmlns="http://www.w3.org/2000/svg">
<path d="M37.6498 31.1667L23.333 53.8333L17.6663 53.8333L24.8233 31.1667L9.63668 31.1667L4.91634 39.6667L0.666342 39.6667L3.49967 26.9167L0.666343 14.1667L4.91634 14.1667L9.63951 22.6667L24.8262 22.6667L17.6663 -1.73388e-06L23.333 -1.48619e-06L37.6498 22.6667L53.083 22.6667C54.2102 22.6667 55.2912 23.1144 56.0882 23.9115C56.8852 24.7085 57.333 25.7895 57.333 26.9167C57.333 28.0438 56.8852 29.1248 56.0882 29.9219C55.2912 30.7189 54.2102 31.1667 53.083 31.1667L37.6498 31.1667Z" fill="#3284E5"/>
</svg>
