<svg width="1440" height="448" viewBox="0 0 1440 448" fill="none" xmlns="http://www.w3.org/2000/svg">
<path fill-rule="evenodd" clip-rule="evenodd" d="M419.583 0C293.946 0 188.086 84.5936 155.914 199.883C139.016 194.555 121.024 191.689 102.373 191.689C32.051 191.689 -28.7123 232.479 -57.5592 291.673C-77.495 275.763 -102.773 266.231 -130.271 266.231C-194.656 266.231 -246.849 318.399 -246.849 382.752C-246.849 389.863 -246.211 396.815 -245 403.587H-300.761C-331.701 403.587 -357 428.869 -357 459.788C-357 490.707 -331.701 516 -300.761 516H1564.76C1595.7 516 1621 490.707 1621 459.788C1621 456.105 1620.64 452.496 1619.96 449.004C1620.64 444.875 1621 440.651 1621 436.342C1621 394.13 1586.77 359.9 1544.52 359.9C1526.48 359.9 1509.89 366.151 1496.82 376.596C1477.89 337.748 1438.03 310.99 1391.89 310.99C1379.66 310.99 1367.85 312.89 1356.77 316.382C1335.65 240.736 1266.21 185.236 1183.78 185.236C1102.18 185.236 1033.3 239.632 1011.45 314.121C1002.8 312.073 993.792 310.99 984.53 310.99C951.138 310.99 921.037 325.001 899.774 347.46C888.972 259.672 814.083 191.689 723.304 191.689C709.178 191.689 695.445 193.334 682.264 196.444C648.957 82.9169 543.967 0 419.583 0Z" fill="#C5E0F3"/>
<path fill-rule="evenodd" clip-rule="evenodd" d="M-652 517H2092C2076.56 511.434 2059.91 508.381 2042.56 508.381C2041.87 508.381 2041.17 508.395 2040.48 508.408C2041.84 500.452 2042.56 492.289 2042.56 483.946C2042.56 403.709 1977.46 338.679 1897.16 338.679C1857.12 338.679 1820.87 354.854 1794.58 381.001C1768.29 354.854 1732.03 338.679 1691.99 338.679C1666.37 338.679 1642.29 345.323 1621.38 356.953C1593.67 276.136 1516.97 218.026 1426.67 218.026C1335.72 218.026 1258.57 276.951 1231.36 358.68C1209.76 345.972 1184.6 338.679 1157.72 338.679C1099.8 338.679 1049.78 372.548 1026.41 421.527C1001.47 410.173 973.76 403.847 944.559 403.847C943.619 403.847 942.693 403.875 941.752 403.889C943.591 393.06 944.559 381.954 944.559 370.6C944.559 261.522 856.043 173.094 746.844 173.094C692.41 173.094 643.119 195.069 607.351 230.637C571.596 195.069 522.292 173.094 467.858 173.094C433.002 173.094 400.261 182.113 371.834 197.929C334.144 88.0218 229.839 9 107.048 9C-16.6283 9 -121.528 89.1407 -158.541 200.263C-187.908 182.997 -222.128 173.094 -258.657 173.094C-367.87 173.094 -456.386 261.522 -456.386 370.6C-456.386 382.286 -455.363 393.709 -453.414 404.828C-459.926 404.179 -466.521 403.847 -473.185 403.847C-552.174 403.847 -620.324 450.119 -652 517Z" fill="white"/>
</svg>
